<?xml version="1.0" standalone="no"?>
<!DOCTYPE svg PUBLIC "-//W3C//DTD SVG 20010904//EN"
 "http://www.w3.org/TR/2001/REC-SVG-20010904/DTD/svg10.dtd">
<svg version="1.0" xmlns="http://www.w3.org/2000/svg"
 width="32.000000pt" height="32.000000pt" viewBox="0 0 32.000000 32.000000"
 preserveAspectRatio="xMidYMid meet">

<g transform="translate(0.000000,32.000000) scale(0.100000,-0.100000)"
fill="#000000" stroke="none">
<path d="M105 285 c-29 -12 -75 -64 -75 -85 0 -5 9 -10 20 -10 24 0 25 -9 5
-36 -18 -24 -19 -34 -2 -34 8 0 22 19 32 43 l17 42 11 -32 c15 -49 32 -41 30
15 -1 23 18 12 31 -19 l13 -31 7 32 c6 32 6 32 31 16 16 -10 25 -12 25 -5 0 7
9 9 25 5 30 -8 30 -5 8 37 -16 31 -16 31 -26 10 -5 -12 -16 -24 -25 -28 -13
-5 -13 -3 -1 11 11 14 11 18 1 22 -10 3 -10 7 -1 18 9 11 9 18 1 26 -16 16
-93 18 -127 3z m15 -25 c0 -5 -4 -10 -10 -10 -5 0 -10 5 -10 10 0 6 5 10 10
10 6 0 10 -4 10 -10z m74 -36 c5 -14 4 -15 -9 -4 -17 14 -19 20 -6 20 5 0 12
-7 15 -16z"/>
<path d="M270 145 c0 -15 4 -24 10 -20 6 3 10 12 10 20 0 8 -4 17 -10 20 -6 4
-10 -5 -10 -20z"/>
<path d="M241 134 c0 -11 3 -14 6 -6 3 7 2 16 -1 19 -3 4 -6 -2 -5 -13z"/>
<path d="M147 116 c-3 -8 -21 -13 -46 -13 -51 0 -62 -10 -36 -29 17 -13 21
-13 30 0 7 9 16 11 25 6 14 -9 43 13 46 36 3 18 -12 18 -19 0z"/>
<path d="M210 111 c0 -7 -5 -9 -10 -6 -6 3 -13 -1 -16 -10 -8 -20 1 -29 18
-19 7 4 25 8 40 9 16 1 33 6 39 12 7 7 2 9 -18 7 -15 -1 -33 2 -40 8 -9 7 -13
7 -13 -1z"/>
<path d="M117 43 c9 -7 31 -13 48 -13 17 0 39 6 48 13 15 10 7 12 -48 12 -55
0 -63 -2 -48 -12z"/>
</g>
</svg>
