<?xml version="1.0" standalone="no"?>
<!DOCTYPE svg PUBLIC "-//W3C//DTD SVG 20010904//EN"
 "http://www.w3.org/TR/2001/REC-SVG-20010904/DTD/svg10.dtd">
<svg version="1.0" xmlns="http://www.w3.org/2000/svg"
 width="32.000000pt" height="32.000000pt" viewBox="0 0 32.000000 32.000000"
 preserveAspectRatio="xMidYMid meet">

<g transform="translate(0.000000,32.000000) scale(0.100000,-0.100000)"
fill="#000000" stroke="none">
<path d="M107 296 c-3 -8 -12 -13 -20 -10 -16 6 -41 -21 -33 -35 4 -5 2 -12
-4 -16 -5 -3 -10 -26 -10 -50 0 -55 -9 -82 -21 -63 -7 10 -9 9 -9 -4 0 -10 7
-18 15 -18 8 0 15 -5 15 -11 0 -5 -6 -7 -12 -3 -8 5 -7 -2 3 -16 23 -35 78
-70 108 -69 l26 1 -25 8 c-14 4 -23 9 -20 10 19 7 75 10 89 4 13 -5 12 -8 -9
-14 -21 -7 -21 -8 -5 -9 30 -1 83 34 105 71 24 40 26 117 5 158 -19 37 -28 39
-15 4 15 -39 12 -127 -5 -150 -18 -23 -16 -30 -18 94 -2 99 -3 104 -27 117
-28 16 -65 21 -42 6 11 -7 10 -10 -3 -15 -30 -11 -64 -6 -73 10 -8 15 -10 15
-15 0z m123 -53 c0 -9 -18 -43 -40 -74 -22 -32 -40 -60 -40 -63 0 -3 18 -6 40
-6 32 0 40 -4 40 -19 0 -14 -10 -20 -46 -25 -84 -11 -104 -8 -104 15 0 12 20
50 46 85 l45 64 -40 0 c-34 0 -41 3 -41 20 0 18 7 20 70 20 59 0 70 -3 70 -17z"/>
</g>
</svg>
