<?xml version="1.0" standalone="no"?>
<!DOCTYPE svg PUBLIC "-//W3C//DTD SVG 20010904//EN"
 "http://www.w3.org/TR/2001/REC-SVG-20010904/DTD/svg10.dtd">
<svg version="1.0" xmlns="http://www.w3.org/2000/svg"
 width="32.000000pt" height="32.000000pt" viewBox="0 0 32.000000 32.000000"
 preserveAspectRatio="xMidYMid meet">

<g transform="translate(0.000000,32.000000) scale(0.100000,-0.100000)"
fill="#000000" stroke="none">
<path d="M90 295 c-23 -13 -18 -14 68 -15 50 0 92 -3 91 -7 -1 -16 -194 -182
-198 -171 -2 6 32 44 75 84 l79 73 -82 1 c-81 0 -83 0 -98 -30 -21 -41 -19
-118 5 -158 43 -70 147 -95 218 -52 97 60 97 210 0 270 -39 24 -121 26 -158 5z
m104 -146 l-68 -69 72 0 c41 0 72 -4 72 -10 0 -6 -42 -10 -106 -10 l-105 0 58
49 c32 27 76 67 98 90 22 23 41 37 44 30 2 -6 -27 -42 -65 -80z"/>
</g>
</svg>
